<svg width="14" height="14" viewBox="0 0 14 14" fill="none" xmlns="http://www.w3.org/2000/svg">
<path fill-rule="evenodd" clip-rule="evenodd" d="M13.3 9.8C13.659 9.8 13.9549 10.0702 13.9953 10.4184L14 10.5V11.9C14 13.0184 13.1258 13.9326 12.0234 13.9964L11.9 14H2.1C0.981623 14 0.0674373 13.1258 0.00356483 12.0234L0 11.9V10.5C0 10.1134 0.313401 9.8 0.7 9.8C1.05899 9.8 1.35486 10.0702 1.39529 10.4184L1.4 10.5V11.9C1.4 12.259 1.67023 12.5549 2.01837 12.5953L2.1 12.6H11.9C12.259 12.6 12.5549 12.3298 12.5953 11.9816L12.6 11.9V10.5C12.6 10.1134 12.9134 9.8 13.3 9.8ZM7 0C7.3866 0 7.7 0.313401 7.7 0.7V7.4095L8.60503 6.50503C8.85736 6.25269 9.25443 6.23328 9.52903 6.44679L9.59497 6.50503C9.84731 6.75736 9.86672 7.15443 9.65321 7.42903L9.59497 7.49497L7.49497 9.59497L7.4642 9.62395L7.41671 9.66257L7.33884 9.71273L7.25994 9.75014L7.1862 9.77491L7.08223 9.79522L7 9.8L6.94733 9.79805L6.85949 9.78583L6.7815 9.76518L6.70374 9.73443L6.6355 9.6978L6.56828 9.65105C6.54607 9.63363 6.52495 9.6149 6.50503 9.59497L4.40503 7.49497C4.13166 7.22161 4.13166 6.77839 4.40503 6.50503C4.65736 6.25269 5.05443 6.23328 5.32903 6.44679L5.39497 6.50503L6.3 7.4095V0.7C6.3 0.313401 6.6134 0 7 0V0Z" fill="black"/>
</svg>
