<svg width="23" height="27" viewBox="0 0 23 27" fill="none" xmlns="http://www.w3.org/2000/svg">
<path d="M2.8125 26.7187C1.41658 26.7187 0.28125 25.5832 0.28125 24.1875V2.81245C0.28125 1.41655 1.41658 0.281205 2.8125 0.281205H16.1958L22.2187 6.30389V24.1875C22.2187 25.5832 21.0832 26.7187 19.6875 26.7187H2.8125Z" fill="#F6F6F6"/>
<path d="M16.3123 -1.45435e-05H2.8125C1.25925 -1.45435e-05 0 1.25925 0 2.81249V24.1875C0 25.7407 1.25925 27 2.8125 27H19.6875C21.2407 27 22.5 25.7407 22.5 24.1875V6.18749L16.3123 -1.45435e-05ZM16.0793 0.562485L21.9375 6.42042V24.1875C21.9375 25.4281 20.9281 26.4375 19.6875 26.4375H2.8125C1.57192 26.4375 0.5625 25.4281 0.5625 24.1875V2.81249C0.5625 1.57189 1.57192 0.562485 2.8125 0.562485H16.0793Z" fill="#E0E0E0"/>
<path d="M2.8125 26.7187C1.41658 26.7187 0.28125 25.5832 0.28125 24.1875V2.81245C0.28125 1.41655 1.41658 0.281205 2.8125 0.281205H16.1958L22.2187 6.30389V24.1875C22.2187 25.5832 21.0832 26.7187 19.6875 26.7187H2.8125Z" fill="#68AB46"/>
<path d="M16.3123 -1.45435e-05H2.8125C1.25925 -1.45435e-05 0 1.25925 0 2.81249V24.1875C0 25.7407 1.25925 27 2.8125 27H19.6875C21.2407 27 22.5 25.7407 22.5 24.1875V6.18749L16.3123 -1.45435e-05ZM16.0793 0.562485L21.9375 6.42042V24.1875C21.9375 25.4281 20.9281 26.4375 19.6875 26.4375H2.8125C1.57192 26.4375 0.5625 25.4281 0.5625 24.1875V2.81249C0.5625 1.57189 1.57192 0.562485 2.8125 0.562485H16.0793Z" fill="#5C973E"/>
<path d="M17.1198 5.34525L22.5644 10.7899V5.34525H17.1198Z" fill="#5C973E"/>
<path d="M22.5 6.18744H19.125C17.5718 6.18744 16.3125 4.92817 16.3125 3.37494V-6.08712e-05H22.5V6.18744Z" fill="#B3D5A2"/>
<path d="M10.125 20.25V18.5625H17.4375V20.25H10.125ZM5.0625 18.5625H9V20.25H5.0625V18.5625ZM9 15.1875V16.875H5.0625V15.1875H9ZM17.4375 15.1875V16.875H10.125V15.1875H17.4375ZM3.375 13.5V21.9375H19.125V13.5H3.375Z" fill="#E0E0E0"/>
<path d="M3.01025 3.50443H3.75378L4.40549 4.49691L5.0801 3.50443H5.80364L4.77618 5.04714L5.90495 6.75H5.18225L4.41033 5.59643L3.64218 6.75H2.9039L4.04426 5.04934L3.01025 3.50443Z" fill="white"/>
<path d="M6.36963 3.50443H7.0642V6.05036H8.0209V6.75H6.36963V3.50443Z" fill="white"/>
<path d="M10.337 3.79835L9.90195 4.27564C9.67301 4.14047 9.50798 4.0728 9.40757 4.0728C9.33 4.0728 9.26346 4.10227 9.20743 4.16049C9.15135 4.21894 9.12323 4.2888 9.12323 4.36946C9.12323 4.52938 9.26829 4.66781 9.55832 4.7847C9.771 4.87549 9.93165 4.95767 10.0404 5.03062C10.1492 5.1042 10.2401 5.20573 10.3135 5.336C10.3867 5.46611 10.4236 5.60719 10.4236 5.75878C10.4236 6.03716 10.3113 6.27954 10.0861 6.48542C9.86134 6.69152 9.59544 6.79434 9.28894 6.79434C8.95273 6.79434 8.62074 6.63634 8.29269 6.31993L8.75259 5.78336C8.95847 5.9961 9.15135 6.10219 9.3309 6.10219C9.41505 6.10219 9.49571 6.06484 9.57323 5.99014C9.65057 5.91521 9.68949 5.8368 9.68949 5.75462C9.68949 5.58542 9.51062 5.43602 9.15293 5.30681C8.94857 5.2325 8.80356 5.16264 8.71783 5.09762C8.63216 5.03259 8.56011 4.93764 8.50189 4.81305C8.44299 4.68891 8.41374 4.5615 8.41374 4.43117C8.41374 4.14289 8.50779 3.90889 8.69567 3.72917C8.88354 3.54962 9.12919 3.45979 9.43243 3.45979C9.79142 3.45979 10.0931 3.57274 10.337 3.79835" fill="white"/>
</svg>
