<svg width="23" height="27" viewBox="0 0 23 27" fill="none" xmlns="http://www.w3.org/2000/svg">
<path d="M2.8125 26.7188C1.41658 26.7188 0.28125 25.5832 0.28125 24.1875V2.8125C0.28125 1.4166 1.41658 0.281252 2.8125 0.281252H16.1961L22.2187 6.30394V24.1875C22.2187 25.5832 21.0832 26.7188 19.6875 26.7188H2.8125Z" fill="#F6F6F6"/>
<path d="M16.3125 7.15256e-07H2.8125C1.25903 7.15256e-07 0 1.25927 0 2.8125V24.1875C0 25.7407 1.25903 27 2.8125 27H19.6875C21.241 27 22.5 25.7407 22.5 24.1875V6.1875L16.3125 7.15256e-07ZM16.0796 0.562501L21.9375 6.42043V24.1875C21.9375 25.4281 20.9285 26.4375 19.6875 26.4375H2.8125C1.5717 26.4375 0.5625 25.4281 0.5625 24.1875V2.8125C0.5625 1.57191 1.5717 0.562501 2.8125 0.562501H16.0796Z" fill="#E0E0E0"/>
<path d="M2.8125 26.7188C1.41658 26.7188 0.28125 25.5832 0.28125 24.1875V2.8125C0.28125 1.4166 1.41658 0.281252 2.8125 0.281252H16.1961L22.2187 6.30394V24.1875C22.2187 25.5832 21.0832 26.7188 19.6875 26.7188H2.8125Z" fill="#7BB2D1"/>
<path d="M16.3125 7.15256e-07H2.8125C1.25903 7.15256e-07 0 1.25927 0 2.8125V24.1875C0 25.7407 1.25903 27 2.8125 27H19.6875C21.241 27 22.5 25.7407 22.5 24.1875V6.1875L16.3125 7.15256e-07ZM16.0796 0.562501L21.9375 6.42043V24.1875C21.9375 25.4281 20.9285 26.4375 19.6875 26.4375H2.8125C1.5717 26.4375 0.5625 25.4281 0.5625 24.1875V2.8125C0.5625 1.57191 1.5717 0.562501 2.8125 0.562501H16.0796Z" fill="#679FB7"/>
<path d="M17.12 5.34528L22.5644 10.7899V5.34528H17.12Z" fill="#679FB7"/>
<path d="M22.5 6.1875H19.125C17.5715 6.1875 16.3125 4.92823 16.3125 3.375V1.63913e-07H22.5V6.1875Z" fill="#BDD9E8"/>
<path d="M3.84081 4.0878V4.91833H4.11261C4.22972 4.91833 4.32973 4.87637 4.41321 4.79222C4.49629 4.70829 4.53802 4.60856 4.53802 4.49319C4.53802 4.36134 4.49122 4.25919 4.39672 4.18669C4.30335 4.11418 4.16931 4.0779 3.99684 4.0779L3.84081 4.0878ZM3.15637 3.50443H4.266C4.56441 3.50443 4.80499 3.59145 4.9878 3.76504C5.17084 3.93902 5.26247 4.16756 5.26247 4.45123C5.26247 4.63731 5.21741 4.81421 5.1273 4.98122C5.03724 5.14862 4.90207 5.27344 4.72084 5.35584C4.53954 5.43825 4.38463 5.48106 4.2561 5.48437L3.85071 5.49427V6.75H3.15637V3.50443Z" fill="white"/>
<path d="M7.97389 3.50443H8.65834V6.75H7.97715L6.49294 4.64878V6.75H5.79353V3.50443H6.48523L7.97389 5.59074V3.50443Z" fill="white"/>
<path d="M12.0696 4.20884L11.6049 4.64393C11.5082 4.4758 11.3873 4.35037 11.2445 4.26706C11.1006 4.18381 10.9512 4.14207 10.7941 4.14207C10.5403 4.14207 10.3201 4.23854 10.1332 4.4312C9.9459 4.62414 9.85253 4.85155 9.85253 5.11345C9.85253 5.39206 9.9459 5.62831 10.1332 5.82164C10.3201 6.01542 10.5458 6.11212 10.8095 6.11212C10.9523 6.11212 11.0907 6.07612 11.223 6.00355C11.3555 5.93082 11.4625 5.79503 11.5433 5.59557H10.7743V4.96276H12.2728V5.38306C12.2728 5.59884 12.1981 5.83087 12.0498 6.0787C11.9015 6.32699 11.7064 6.50829 11.4643 6.62253C11.2221 6.73722 10.9775 6.79437 10.7304 6.79437C10.2821 6.79437 9.90354 6.6322 9.59546 6.30747C9.28716 5.98291 9.13292 5.58151 9.13292 5.10355C9.13292 4.65052 9.29183 4.26312 9.60908 3.94188C9.92616 3.62041 10.3085 3.45982 10.7545 3.45982C11.3247 3.45982 11.7631 3.70962 12.0696 4.20884" fill="white"/>
<path d="M6.1875 14.6252H4.5V12.9377H6.1875V14.6252Z" fill="#E0E0E0"/>
<path d="M9.5625 14.6252H7.875V12.9377H9.5625V14.6252Z" fill="#E0E0E0"/>
<path d="M12.9375 14.6252H11.25V12.9377H12.9375V14.6252Z" fill="#E0E0E0"/>
<path d="M16.3125 14.6252H14.625V12.9377H16.3125V14.6252Z" fill="#E0E0E0"/>
<path d="M19.6875 14.6252H18V12.9377H19.6875V14.6252Z" fill="#E0E0E0"/>
<path d="M6.1875 18H4.5V16.3125H6.1875V18Z" fill="#E0E0E0"/>
<path d="M9.5625 18H7.875V16.3125H9.5625V18Z" fill="#E0E0E0"/>
<path d="M12.9375 18H11.25V16.3125H12.9375V18Z" fill="#E0E0E0"/>
<path d="M16.3125 18H14.625V16.3125H16.3125V18Z" fill="#E0E0E0"/>
<path d="M19.6875 18H18V16.3125H19.6875V18Z" fill="#E0E0E0"/>
<path d="M4.5 16.3125H2.8125V14.625H4.5V16.3125Z" fill="#E0E0E0"/>
<path d="M7.875 16.3125H6.1875V14.625H7.875V16.3125Z" fill="#E0E0E0"/>
<path d="M11.25 16.3125H9.5625V14.625H11.25V16.3125Z" fill="#E0E0E0"/>
<path d="M14.625 16.3125H12.9375V14.625H14.625V16.3125Z" fill="#E0E0E0"/>
<path d="M18 16.3125H16.3125V14.625H18V16.3125Z" fill="#E0E0E0"/>
<path d="M6.1875 21.375H4.5V19.6875H6.1875V21.375Z" fill="#E0E0E0"/>
<path d="M9.5625 21.375H7.875V19.6875H9.5625V21.375Z" fill="#E0E0E0"/>
<path d="M12.9375 21.375H11.25V19.6875H12.9375V21.375Z" fill="#E0E0E0"/>
<path d="M16.3125 21.375H14.625V19.6875H16.3125V21.375Z" fill="#E0E0E0"/>
<path d="M19.6875 21.375H18V19.6875H19.6875V21.375Z" fill="#E0E0E0"/>
<path d="M4.5 19.6875H2.8125V18H4.5V19.6875Z" fill="#E0E0E0"/>
<path d="M7.875 19.6875H6.1875V18H7.875V19.6875Z" fill="#E0E0E0"/>
<path d="M11.25 19.6875H9.5625V18H11.25V19.6875Z" fill="#E0E0E0"/>
<path d="M14.625 19.6875H12.9375V18H14.625V19.6875Z" fill="#E0E0E0"/>
<path d="M18 19.6875H16.3125V18H18V19.6875Z" fill="#E0E0E0"/>
<path d="M4.5 23.0625H2.8125V21.375H4.5V23.0625Z" fill="#E0E0E0"/>
<path d="M7.875 23.0625H6.1875V21.375H7.875V23.0625Z" fill="#E0E0E0"/>
<path d="M11.25 23.0625H9.5625V21.375H11.25V23.0625Z" fill="#E0E0E0"/>
<path d="M14.625 23.0625H12.9375V21.375H14.625V23.0625Z" fill="#E0E0E0"/>
<path d="M18 23.0625H16.3125V21.375H18V23.0625Z" fill="#E0E0E0"/>
</svg>
