<svg width="23" height="27" viewBox="0 0 23 27" fill="none" xmlns="http://www.w3.org/2000/svg">
<path d="M2.8125 26.7188C1.41658 26.7188 0.28125 25.5832 0.28125 24.1875V2.8125C0.28125 1.41677 1.41658 0.281252 2.8125 0.281252H16.1961L22.2187 6.30394V24.1875C22.2187 25.5832 21.0832 26.7188 19.6875 26.7188H2.8125Z" fill="#F6F6F6"/>
<path d="M16.3125 7.15256e-07H2.8125C1.25903 7.15256e-07 0 1.25927 0 2.8125V24.1875C0 25.7407 1.25903 27 2.8125 27H19.6875C21.241 27 22.5 25.7407 22.5 24.1875V6.1875L16.3125 7.15256e-07ZM16.0796 0.562501L21.9375 6.42043V24.1875C21.9375 25.4281 20.9285 26.4375 19.6875 26.4375H2.8125C1.5717 26.4375 0.5625 25.4281 0.5625 24.1875V2.8125C0.5625 1.57191 1.5717 0.562501 2.8125 0.562501H16.0796Z" fill="#E0E0E0"/>
<path d="M17.8594 18.5625H10.2656C9.79982 18.5625 9.42188 18.1848 9.42188 17.7188C9.42188 17.2527 9.79982 16.875 10.2656 16.875H17.8594C18.3252 16.875 18.7031 17.2527 18.7031 17.7188C18.7031 18.1848 18.3252 18.5625 17.8594 18.5625Z" fill="#D8D8D8"/>
<path d="M17.8594 21.9375H10.2656C9.79982 21.9375 9.42188 21.5598 9.42188 21.0938C9.42188 20.6277 9.79982 20.25 10.2656 20.25H17.8594C18.3252 20.25 18.7031 20.6277 18.7031 21.0938C18.7031 21.5598 18.3252 21.9375 17.8594 21.9375Z" fill="#D8D8D8"/>
<path d="M18.1406 15.1875H4.35937C3.89357 15.1875 3.51562 14.8098 3.51562 14.3438C3.51562 13.8777 3.89357 13.5 4.35937 13.5H18.1406C18.6064 13.5 18.9844 13.8777 18.9844 14.3438C18.9844 14.8098 18.6064 15.1875 18.1406 15.1875Z" fill="#D8D8D8"/>
<path d="M2.8125 26.7188C1.41658 26.7188 0.28125 25.5832 0.28125 24.1875V2.8125C0.28125 1.4166 1.41658 0.281252 2.8125 0.281252H16.1961L22.2187 6.30394V24.1875C22.2187 25.5832 21.0832 26.7188 19.6875 26.7188H2.8125Z" fill="#D84953"/>
<path d="M16.3125 7.15256e-07H2.8125C1.25903 7.15256e-07 0 1.25927 0 2.8125V24.1875C0 25.7407 1.25903 27 2.8125 27H19.6875C21.241 27 22.5 25.7407 22.5 24.1875V6.1875L16.3125 7.15256e-07ZM16.0796 0.562501L21.9375 6.42043V24.1875C21.9375 25.4281 20.9285 26.4375 19.6875 26.4375H2.8125C1.5717 26.4375 0.5625 25.4281 0.5625 24.1875V2.8125C0.5625 1.57191 1.5717 0.562501 2.8125 0.562501H16.0796Z" fill="#C4434C"/>
<path d="M17.12 5.34528L22.5644 10.7899V5.34528H17.12Z" fill="#C4434C"/>
<path d="M22.5 6.1875H19.125C17.5715 6.1875 16.3125 4.92823 16.3125 3.375V1.63913e-07H22.5V6.1875Z" fill="#ECA4A9"/>
<path d="M3.84081 4.0878V4.91833H4.11261C4.22972 4.91833 4.32973 4.87637 4.41321 4.79222C4.49629 4.70829 4.53802 4.60856 4.53802 4.49319C4.53802 4.36134 4.49122 4.25919 4.39672 4.18669C4.30335 4.11418 4.16931 4.0779 3.99684 4.0779L3.84081 4.0878ZM3.15637 3.50443H4.266C4.56441 3.50443 4.80499 3.59145 4.9878 3.76504C5.17084 3.93902 5.26247 4.16756 5.26247 4.45123C5.26247 4.63731 5.21741 4.81421 5.1273 4.98122C5.03724 5.14862 4.90207 5.27344 4.72084 5.35584C4.53954 5.43825 4.38463 5.48106 4.2561 5.48437L3.85071 5.49427V6.75H3.15637V3.50443Z" fill="white"/>
<path d="M6.5182 4.11744V6.12225H6.79506C7.08176 6.12225 7.31689 6.04378 7.50145 5.88735C7.68606 5.73069 7.77831 5.46941 7.77831 5.10356C7.77831 4.89111 7.73438 4.70301 7.64539 4.53909C7.5564 4.37496 7.42675 4.26381 7.25867 4.20514C7.08947 4.14669 6.92798 4.11744 6.77526 4.11744H6.5182ZM5.81355 3.50443H6.92072C7.39378 3.50443 7.7746 3.65361 8.06288 3.95179C8.35138 4.24997 8.49572 4.64304 8.49572 5.13084C8.49572 5.62039 8.34632 6.01262 8.04966 6.30748C7.75198 6.60257 7.35581 6.75 6.86138 6.75H5.81355V3.50443Z" fill="white"/>
<path d="M9.04658 3.50443H10.8732V4.13218H9.7416V4.79464H10.8732V5.42745H9.74599V6.75H9.04658V3.50443Z" fill="white"/>
<path d="M7.875 21.0938C7.875 21.5598 7.49706 21.9375 7.03125 21.9375H4.21875C3.75294 21.9375 3.375 21.5598 3.375 21.0938V17.7188C3.375 17.2527 3.75294 16.875 4.21875 16.875H7.03125C7.49706 16.875 7.875 17.2527 7.875 17.7188V21.0938Z" fill="#E0E0E0"/>
</svg>
