<svg width="23" height="27" viewBox="0 0 23 27" fill="none" xmlns="http://www.w3.org/2000/svg">
<path d="M2.8125 26.7187C1.41658 26.7187 0.28125 25.5832 0.28125 24.1875V2.8125C0.28125 1.41677 1.41658 0.281249 2.8125 0.281249H16.1958L22.2187 6.30394V24.1875C22.2187 25.5832 21.0832 26.7187 19.6875 26.7187H2.8125Z" fill="#F6F6F6"/>
<path d="M16.3123 7.15256e-07H2.8125C1.25925 7.15256e-07 0 1.25927 0 2.8125V24.1875C0 25.741 1.25925 27 2.8125 27H19.6875C21.2407 27 22.5 25.741 22.5 24.1875V6.1875L16.3123 7.15256e-07ZM16.0793 0.562501L21.9375 6.42043V24.1875C21.9375 25.4285 20.9281 26.4375 19.6875 26.4375H2.8125C1.57192 26.4375 0.5625 25.4285 0.5625 24.1875V2.8125C0.5625 1.57191 1.57192 0.562501 2.8125 0.562501H16.0793Z" fill="#E0E0E0"/>
<path d="M2.8125 26.7187C1.41658 26.7187 0.28125 25.5832 0.28125 24.1875V2.8125C0.28125 1.4166 1.41658 0.281249 2.8125 0.281249H16.1958L22.2187 6.30394V24.1875C22.2187 25.5832 21.0832 26.7187 19.6875 26.7187H2.8125Z" fill="#5E68BD"/>
<path d="M16.3123 7.15256e-07H2.8125C1.25925 7.15256e-07 0 1.25927 0 2.8125V24.1875C0 25.741 1.25925 27 2.8125 27H19.6875C21.2407 27 22.5 25.741 22.5 24.1875V6.1875L16.3123 7.15256e-07ZM16.0793 0.562501L21.9375 6.42043V24.1875C21.9375 25.4285 20.9281 26.4375 19.6875 26.4375H2.8125C1.57192 26.4375 0.5625 25.4285 0.5625 24.1875V2.8125C0.5625 1.57191 1.57192 0.562501 2.8125 0.562501H16.0793Z" fill="#4D5599"/>
<path d="M17.1198 5.34527L22.5644 10.7899V5.34527H17.1198Z" fill="#4D5599"/>
<path d="M22.5 6.1875H19.125C17.5718 6.1875 16.3125 4.92823 16.3125 3.375V1.63913e-07H22.5V6.1875Z" fill="#AEB3DE"/>
<path d="M2.91885 3.50443H5.10137V4.19394H4.35741V6.75H3.65777V4.19394H2.91885V3.50443Z" fill="white"/>
<path d="M5.43516 3.50443H6.17873L6.83044 4.49691L7.50499 3.50443H8.22853L7.20129 5.04714L8.32984 6.75H7.60714L6.8355 5.59643L6.06707 6.75H5.32879L6.46943 5.04934L5.43516 3.50443Z" fill="white"/>
<path d="M8.55726 3.50443H10.74V4.19394H9.9958V6.75H9.29644V4.19394H8.55726V3.50443Z" fill="white"/>
<path d="M18.2812 15.1875H4.5C4.03397 15.1875 3.65625 14.8096 3.65625 14.3438C3.65625 13.8777 4.03397 13.5 4.5 13.5H18.2812C18.7473 13.5 19.125 13.8777 19.125 14.3438C19.125 14.8096 18.7473 15.1875 18.2812 15.1875Z" fill="#D8D8D8"/>
<path d="M18.2812 18.5625H4.5C4.03397 18.5625 3.65625 18.1846 3.65625 17.7188C3.65625 17.2529 4.03397 16.875 4.5 16.875H18.2812C18.7473 16.875 19.125 17.2529 19.125 17.7188C19.125 18.1846 18.7473 18.5625 18.2812 18.5625Z" fill="#D8D8D8"/>
<path d="M18.2812 21.9375H4.5C4.03397 21.9375 3.65625 21.5596 3.65625 21.0938C3.65625 20.6279 4.03397 20.25 4.5 20.25H18.2812C18.7473 20.25 19.125 20.6279 19.125 21.0938C19.125 21.5596 18.7473 21.9375 18.2812 21.9375Z" fill="#D8D8D8"/>
<path d="M16.3125 23.0625H15.4688V11.8125H16.3125V23.0625Z" fill="#EBCFCF"/>
</svg>
