<svg width="23" height="27" viewBox="0 0 23 27" fill="none" xmlns="http://www.w3.org/2000/svg">
<path d="M2.8125 26.7187C1.41658 26.7187 0.28125 25.5832 0.28125 24.1875V2.8125C0.28125 1.4166 1.41658 0.281249 2.8125 0.281249H16.1958L22.2187 6.30394V24.1875C22.2187 25.5832 21.0832 26.7187 19.6875 26.7187H2.8125Z" fill="#3098D8"/>
<path d="M16.3123 7.15256e-07H2.8125C1.25925 7.15256e-07 0 1.25927 0 2.8125V24.1875C0 25.7407 1.25925 27 2.8125 27H19.6875C21.2407 27 22.5 25.7407 22.5 24.1875V6.1875L16.3123 7.15256e-07ZM16.0793 0.562501L21.9375 6.42043V24.1875C21.9375 25.4281 20.9281 26.4375 19.6875 26.4375H2.8125C1.57192 26.4375 0.5625 25.4281 0.5625 24.1875V2.8125C0.5625 1.57191 1.57192 0.562501 2.8125 0.562501H16.0793Z" fill="#2C8AC4"/>
<path d="M17.1198 5.34527L22.5644 10.7899V5.34527H17.1198Z" fill="#2C8AC4"/>
<path d="M22.5 6.1875H19.125C17.5718 6.1875 16.3125 4.92823 16.3125 3.375V1.63913e-07H22.5V6.1875Z" fill="#97CCEC"/>
<path d="M3.83091 4.11744V6.12225H4.10777C4.39453 6.12225 4.63011 6.04378 4.81489 5.88735C4.99944 5.73069 5.09175 5.46941 5.09175 5.10356C5.09175 4.89111 5.04714 4.70301 4.95816 4.53909C4.86917 4.37496 4.74019 4.26381 4.57144 4.20514C4.40224 4.14669 4.24114 4.11744 4.08803 4.11744H3.83091ZM3.12649 3.50443H4.23394C4.70678 3.50443 5.08753 3.65361 5.37581 3.95179C5.66432 4.24997 5.80849 4.64304 5.80849 5.13084C5.80849 5.62039 5.65948 6.01262 5.36243 6.30748C5.06469 6.60257 4.66898 6.75 4.17459 6.75H3.12649V3.50443Z" fill="white"/>
<path d="M7.8849 4.11744C7.6131 4.11237 7.39378 4.20642 7.22723 4.39914C7.06089 4.59207 6.97764 4.84081 6.97764 5.14574C6.97764 5.43402 7.0627 5.67308 7.23229 5.86253C7.40216 6.05215 7.61614 6.14682 7.875 6.14682C8.14703 6.14682 8.36629 6.05345 8.53374 5.86602C8.70098 5.6795 8.78468 5.4325 8.78468 5.126C8.78468 4.82433 8.70249 4.58217 8.53858 4.39914C8.37467 4.21632 8.15693 4.12227 7.8849 4.11744V4.11744ZM6.24859 5.126C6.24859 4.64635 6.40699 4.25058 6.72407 3.93817C7.04138 3.62592 7.41774 3.46972 7.85278 3.46972C8.334 3.46972 8.73191 3.6266 9.04658 3.94081C9.36146 4.25457 9.5188 4.65136 9.5188 5.13084C9.5188 5.60722 9.36298 6.00271 9.05164 6.31737C8.74029 6.6322 8.34784 6.78954 7.875 6.78954C7.40216 6.78954 7.01258 6.6331 6.70714 6.31996C6.40131 6.00665 6.24859 5.60874 6.24859 5.126Z" fill="white"/>
<path d="M12.527 3.67734V4.46833C12.1762 4.25739 11.8688 4.15192 11.6051 4.15192C11.3414 4.15192 11.1305 4.24271 10.9723 4.42395C10.8141 4.60524 10.735 4.84914 10.735 5.15565C10.735 5.44567 10.8182 5.67771 10.9846 5.85129C11.1511 6.02533 11.3735 6.11212 11.6521 6.11212C11.896 6.11212 12.1878 6.01414 12.527 5.81816V6.60409C12.1465 6.7311 11.8292 6.79438 11.5754 6.79438C11.1388 6.79438 10.7679 6.63441 10.4632 6.31384C10.1582 5.99327 10.0059 5.60216 10.0059 5.14074C10.0059 4.67117 10.1611 4.2737 10.4715 3.94785C10.7822 3.62261 11.1601 3.45982 11.6051 3.45982C11.8918 3.45982 12.1992 3.53233 12.527 3.67734Z" fill="white"/>
<path d="M18.2812 15.1875H4.5C4.03397 15.1875 3.65625 14.8098 3.65625 14.3438C3.65625 13.8777 4.03397 13.5 4.5 13.5H18.2812C18.7473 13.5 19.125 13.8777 19.125 14.3438C19.125 14.8098 18.7473 15.1875 18.2812 15.1875Z" fill="#D8D8D8"/>
<path d="M18.2812 18.5625H4.5C4.03397 18.5625 3.65625 18.1848 3.65625 17.7188C3.65625 17.2527 4.03397 16.875 4.5 16.875H18.2812C18.7473 16.875 19.125 17.2527 19.125 17.7188C19.125 18.1848 18.7473 18.5625 18.2812 18.5625Z" fill="#D8D8D8"/>
<path d="M12.375 21.9375H4.5C4.03397 21.9375 3.65625 21.5598 3.65625 21.0938C3.65625 20.6277 4.03397 20.25 4.5 20.25H12.375C12.841 20.25 13.2187 20.6277 13.2187 21.0938C13.2187 21.5598 12.841 21.9375 12.375 21.9375Z" fill="#D8D8D8"/>
</svg>
